<?xml version="1.0" encoding="UTF-8"?>
<svg id="Layer_1" xmlns="http://www.w3.org/2000/svg" version="1.1" xmlns:xlink="http://www.w3.org/1999/xlink" viewBox="0 0 32 32">
  <!-- Generator: Adobe Illustrator 29.6.1, SVG Export Plug-In . SVG Version: 2.1.1 Build 9)  -->
  <defs>
    <style>
      .st0 {
        fill: url(#linear-gradient2);
      }

      .st1 {
        fill: url(#linear-gradient1);
      }

      .st2 {
        fill: url(#linear-gradient3);
      }

      .st3 {
        fill: url(#linear-gradient);
      }
    </style>
    <linearGradient id="linear-gradient" x1="8.84" y1=".57" x2="17.52" y2="19.8" gradientUnits="userSpaceOnUse">
      <stop offset="0" stop-color="#fff"/>
      <stop offset="1" stop-color="#1a559f"/>
    </linearGradient>
    <linearGradient id="linear-gradient1" x1="16.9" y1="-3.07" x2="25.58" y2="16.16" xlink:href="#linear-gradient"/>
    <linearGradient id="linear-gradient2" x1="9.04" y1=".48" x2="17.71" y2="19.71" xlink:href="#linear-gradient"/>
    <linearGradient id="linear-gradient3" x1="1.07" y1="4.07" x2="9.75" y2="23.3" xlink:href="#linear-gradient"/>
  </defs>
  <path class="st3" d="M16.49,2.53c.78.03,1.44.5,2.02.98.43.36.87.71,1.29,1.07.43.39.93.71,1.36,1.11-.71-.14-1.46-.15-2.15.12-.83.35-1.38.93-2.05,1.49-1.6,1.43-3.2,2.84-4.8,4.28-.69.65-1.45,1.25-2.12,1.93-.32.34-.45.81-.2,1.23.34.58,1.03.98,1.52,1.43.53.5,1.19.79,1.32,1.59-.01.79-.81,1.25-1.53,1.22-.5,0-.92-.31-1.3-.61-1.22-1.01-2.42-2.05-3.64-3.06-.49-.43-1.12-.85-1.39-1.47-.25-.52-.21-1.11,0-1.63.27-.59.88-1.07,1.36-1.5,1.2-1.1,2.44-2.17,3.64-3.26,1.14-1,2.24-2.03,3.38-3.03.45-.44.92-.86,1.41-1.25.54-.42,1.19-.64,1.87-.64h0Z"/>
  <path class="st1" d="M22.73,7.37c.52.24.99.67,1.43,1.03.91.73,1.81,1.48,2.7,2.23.36.35.81.65.77,1.21.03.35-.21.62-.44.85-.51.44-1.03.89-1.58,1.27-.6.39-1.42.28-2.03-.05-.44-.26-.82-.64-1.22-.96-.89-.69-1.71-1.45-2.57-2.16-.4-.35-.84-.67-1.21-1.05-.26-.26-.05-.57.15-.79.59-.6,1.24-1.17,1.98-1.57.62-.34,1.38-.27,2.02-.01h0Z"/>
  <path class="st0" d="M21.9,14.4c.34-.03.67.04.96.22.51.33.94.78,1.42,1.15.7.59,1.4,1.17,2.08,1.77.59.54.97,1.41.71,2.2-.24.73-.9,1.21-1.46,1.71-1.19,1.04-2.35,2.12-3.56,3.14-1.05.96-2.12,1.9-3.19,2.84-.67.56-1.24,1.17-1.98,1.67-.65.38-1.4.49-2.12.25-1.03-.34-1.62-1.06-2.43-1.72-.49-.42-1.01-.81-1.46-1.27.71.03,1.37.12,2.07-.12.8-.25,1.35-.77,1.97-1.29,2-1.74,3.94-3.46,5.91-5.23.45-.4,1.01-.83,1.28-1.38.24-.46.09-1.03-.34-1.32-.44-.35-.91-.72-.93-1.33-.03-.65.46-1.17,1.08-1.28h0Z"/>
  <path class="st2" d="M7.32,18.04c.52-.01.97.2,1.38.5.75.56,1.44,1.19,2.18,1.76.8.68,1.62,1.34,2.42,2.02.15.13.24.28.35.44-.33.66-.91.98-1.43,1.46-.46.42-1.1.77-1.74.73-.66.03-1.33-.22-1.83-.64-1.05-.82-2.07-1.68-3.09-2.54-.34-.28-.7-.56-.97-.89-.26-.31-.29-.76-.03-1.08.37-.46.91-.83,1.37-1.2.38-.31.9-.6,1.41-.57h0Z"/>
</svg>